<svg  enable-background="new 0 0 64 64" height="45" viewBox="0 0 64 64" width="75" xmlns="http://www.w3.org/2000/svg"><g><path d="m35.242 28.375-.303-1.977c-.643.099-1.292.182-1.94.252l.217 1.988c.677-.074 1.355-.16 2.026-.263z"/><path d="m39.276 27.515-.552-1.922c-.588.169-1.218.323-1.871.461l.411 1.957c.7-.147 1.377-.314 2.012-.496z"/><path d="m31.187 28.822-.144-1.994c-.666.048-1.324.084-1.966.11l.081 1.998c.662-.026 1.341-.064 2.029-.114z"/><path d="m33 42.709.217 1.988c.677-.074 1.355-.161 2.026-.264l-.303-1.977c-.643.1-1.292.183-1.94.253z"/><path d="m36.853 42.111.411 1.957c.708-.148 1.385-.315 2.012-.495l-.552-1.922c-.58.166-1.209.322-1.871.46z"/><path d="m63 23v-22h-16v22h7v5.142c-1.399.364-2.494 1.459-2.858 2.858h-8.142v-11c0-3.955-11.12-5-17-5s-17 1.045-17 5v15.279l-.936-.556-5.342 5.342 1.48 2.489c-.147.317-.281.638-.4.956l-2.802.713v7.555l2.802.713c.119.318.252.639.4.956l-1.48 2.489 5.342 5.342 2.489-1.479c.317.147.637.281.956.4l.714 2.801h7.555l.713-2.802c.319-.119.639-.253.956-.4l2.489 1.479 5.342-5.342-1.48-2.489c.147-.317.281-.638.4-.956l2.802-.713v-2.979c3.744-.31 12-1.381 12-4.798v-11h8.142c.364 1.399 1.459 2.494 2.858 2.858v5.142h-7v22h16v-22h-7v-5.142c1.72-.447 3-1.999 3-3.858s-1.28-3.411-3-3.858v-5.142zm-37-6c9.744 0 15 2.129 15 3s-5.256 3-15 3-15-2.129-15-3 5.256-3 15-3zm-15 5.541c3.471 1.888 10.66 2.459 15 2.459s11.529-.571 15-2.459v5.459c0 .871-5.256 3-15 3s-15-2.129-15-3zm18 27.682-2.354.598-.169.528c-.179.56-.415 1.126-.704 1.686l-.254.492 1.246 2.095-3.143 3.143-2.096-1.246-.493.256c-.558.288-1.124.525-1.683.704l-.528.168-.599 2.353h-4.445l-.599-2.354-.528-.168c-.559-.179-1.125-.416-1.683-.704l-.493-.256-2.096 1.246-3.143-3.143 1.246-2.095-.254-.492c-.289-.56-.525-1.126-.704-1.686l-.17-.528-2.354-.597v-4.445l2.354-.598.169-.528c.179-.56.415-1.126.704-1.686l.254-.492-1.246-2.095 3.143-3.143 2.096 1.246.493-.256c.558-.288 1.124-.525 1.683-.704l.528-.168.599-2.354h4.445l.599 2.354.528.168c.559.179 1.125.416 1.683.704l.493.256 2.096-1.246 3.143 3.143-1.246 2.095.254.492c.289.56.525 1.126.704 1.686l.169.528 2.355.597zm2-3.434v-2.566l-2.802-.713c-.119-.318-.252-.639-.4-.956l.806-1.355c4.793-.186 9.731-1.036 12.397-2.578v5.379c-.001.585-2.998 2.203-10.001 2.789zm-2.583-7.585-4.481-4.481-2.489 1.479c-.317-.147-.637-.281-.956-.4l-.714-2.802h-7.555l-.713 2.802c-.17.064-.34.142-.51.214v-5.474c3.472 1.887 10.661 2.458 15.001 2.458s11.529-.571 15-2.459v5.459c0 .84-4.286 2.905-12.583 3.204zm32.583 21.796h-12v-18h12zm-4-29c0 1.103-.897 2-2 2s-2-.897-2-2 .897-2 2-2 2 .897 2 2zm-8-29h12v18h-12z"/><path d="m16 39c-4.962 0-9 4.037-9 9s4.038 9 9 9 9-4.037 9-9-4.038-9-9-9zm0 16c-3.86 0-7-3.141-7-7s3.14-7 7-7 7 3.141 7 7-3.14 7-7 7z"/><path d="m16 43c-2.757 0-5 2.243-5 5s2.243 5 5 5 5-2.243 5-5-2.243-5-5-5zm0 8c-1.654 0-3-1.346-3-3s1.346-3 3-3 3 1.346 3 3-1.346 3-3 3z"/><path d="m51 45h8v2h-8z"/><path d="m59 53h-8v6h8zm-2 4h-4v-2h4z"/><path d="m51 5h8v2h-8z"/><path d="m51 9h8v2h-8z"/><path d="m51 13h8v2h-8z"/><path d="m51 17h8v2h-8z"/><path d="m51 49h8v2h-8z"/><path d="m35 19h2v2h-2z"/><path d="m31 19h2v2h-2z"/><path d="m27 19h2v2h-2z"/><path d="m15 19h2v2h-2z"/><path d="m23 19h2v2h-2z"/><path d="m19 19h2v2h-2z"/></g></svg>