<svg fill="#000000" xmlns="http://www.w3.org/2000/svg"  viewBox="0 0 50 50" width="50px" height="50px"><path d="M 34 12 C 31.417969 12 29.167969 13.292969 27.746094 14.242188 C 25.152344 13.488281 22.226563 13 19 13 C 16.910156 13 13.84375 13.113281 10.921875 14.394531 C 8.054688 15.65625 5.375 18.15625 4.121094 22.515625 C 2.554688 23.941406 1.714844 25.484375 2.09375 26.929688 C 2.296875 27.699219 2.976563 28.351563 3.78125 28.53125 C 4.582031 28.710938 5.453125 28.542969 6.40625 28.113281 L 6.414063 28.109375 C 8.140625 27.34375 10.5625 26.285156 14.453125 26.085938 C 14.550781 26.261719 14.558594 26.347656 14.722656 26.605469 C 15.140625 27.25 15.773438 28.0625 16.691406 28.863281 C 18.527344 30.46875 21.527344 32 26 32 C 26.453125 32 26.847656 31.695313 26.964844 31.261719 C 27.082031 30.824219 26.894531 30.363281 26.5 30.136719 C 26.5 30.136719 24.464844 28.851563 23.125 27.023438 C 25.742188 27.671875 28.296875 28.5 30.464844 29.441406 C 33.214844 30.640625 35.410156 31.945313 36.34375 32.753906 C 36.703125 33.066406 37.234375 33.082031 37.609375 32.792969 C 37.984375 32.5 38.105469 31.988281 37.898438 31.5625 C 37.898438 31.5625 36.554688 28.84375 33.289063 26.21875 C 30.023438 23.597656 24.769531 21 17 21 L 13.09375 21 C 13.152344 20.953125 13.152344 20.921875 13.21875 20.875 C 14.320313 20.039063 16.335938 19.097656 20.019531 19 L 20.027344 19 C 37.675781 18.621094 47.09375 38.425781 47.09375 38.425781 C 47.316406 38.886719 47.847656 39.109375 48.332031 38.941406 C 48.8125 38.773438 49.089844 38.265625 48.972656 37.765625 C 48.972656 37.765625 45.96875 25.140625 35.382813 17.949219 C 35.007813 17.441406 35.007813 17.214844 35.097656 16.960938 C 35.195313 16.695313 35.527344 16.324219 36 16 C 36.949219 15.355469 38.269531 14.964844 38.269531 14.964844 C 38.644531 14.859375 38.925781 14.542969 38.988281 14.15625 C 39.046875 13.769531 38.878906 13.386719 38.554688 13.167969 C 38.554688 13.167969 36.765625 12 34 12 Z M 34 14 C 34.527344 14 34.796875 14.125 35.203125 14.195313 C 35.050781 14.285156 35.027344 14.242188 34.875 14.347656 C 34.210938 14.800781 33.546875 15.390625 33.222656 16.269531 C 32.898438 17.148438 33.085938 18.265625 33.808594 19.207031 C 33.875 19.296875 33.953125 19.371094 34.046875 19.433594 C 37.296875 21.589844 39.585938 24.296875 41.492188 27.011719 C 36.65625 21.855469 29.476563 16.792969 19.980469 17 C 19.976563 17 19.976563 17 19.972656 17 C 15.960938 17.105469 13.480469 18.164063 12.011719 19.277344 C 11.273438 19.835938 10.792969 20.402344 10.496094 20.84375 C 10.195313 21.285156 10.054688 21.675781 10.054688 21.675781 C 9.949219 21.980469 10 22.316406 10.1875 22.582031 C 10.375 22.84375 10.675781 23 11 23 L 17 23 C 24.328125 23 29.078125 25.402344 32.035156 27.78125 C 32.3125 28 32.378906 28.164063 32.625 28.382813 C 32.070313 28.113281 31.875 27.875 31.261719 27.609375 C 28.390625 26.355469 24.929688 25.183594 21.386719 24.515625 C 21.042969 24.453125 20.6875 24.570313 20.457031 24.832031 C 20.222656 25.089844 20.140625 25.453125 20.242188 25.789063 C 20.695313 27.285156 21.601563 28.449219 22.527344 29.421875 C 20.582031 28.921875 18.988281 28.214844 18.007813 27.359375 C 17.25 26.699219 16.734375 26.03125 16.40625 25.519531 C 16.078125 25.011719 15.894531 24.519531 15.949219 24.683594 C 15.808594 24.265625 15.417969 23.992188 14.980469 24 C 10.296875 24.105469 7.367188 25.5 5.59375 26.285156 C 5.589844 26.289063 5.589844 26.289063 5.585938 26.289063 C 4.890625 26.605469 4.414063 26.625 4.222656 26.578125 C 4.03125 26.535156 4.0625 26.550781 4.03125 26.421875 C 3.960938 26.15625 4.21875 24.964844 5.644531 23.765625 C 5.800781 23.632813 5.910156 23.457031 5.964844 23.261719 C 7.042969 19.273438 9.25 17.320313 11.730469 16.230469 C 14.207031 15.136719 16.992188 15 19 15 C 22.199219 15 25.101563 15.484375 27.605469 16.253906 C 27.898438 16.347656 28.214844 16.296875 28.46875 16.125 C 29.695313 15.273438 31.988281 14 34 14 Z"/></svg>